{
  "accessors": [
    {
      "bufferView": 2,
      "componentType": 5126,
      "count": 2,
      "max": [
        -0.37453100085258484,
        -0.10314200073480606,
        -0.0072119999676942825
      ],
      "min": [
        -0.374534010887146,
        -0.10369399935007095,
        -0.007242999970912933
      ],
      "type": "VEC3"
    },
    {
      "bufferView": 1,
      "componentType": 5126,
      "count": 2,
      "max": [
        0.0,
        0.0
      ],
      "min": [
        0.0,
        0.0
      ],
      "type": "VEC2"
    },
    {
      "bufferView": 0,
      "componentType": 5125,
      "count": 2,
      "type": "SCALAR"
    },
    {
      "bufferView": 2,
      "byteOffset": 24,
      "componentType": 5126,
      "count": 10541,
      "max": [
        0.6256610155105591,
        0.4232589900493622,
        0.029363999143242836
      ],
      "min": [
        -0.37473198771476746,
        -0.5771600008010864,
        -0.034533001482486725
      ],
      "type": "VEC3"
    },
    {
      "bufferView": 2,
      "byteOffset": 126516,
      "componentType": 5126,
      "count": 10541,
      "max": [
        0.9995663166046143,
        0.9998744130134583,
        0.9999998807907104
      ],
      "min": [
        -0.9999827146530151,
        -0.9999939203262329,
        -0.9623556137084961
      ],
      "type": "VEC3"
    },
    {
      "bufferView": 1,
      "byteOffset": 16,
      "componentType": 5126,
      "count": 10541,
      "max": [
        0.9983890056610107,
        0.9983890056610107
      ],
      "min": [
        0.0016110000433400273,
        0.0016110000433400273
      ],
      "type": "VEC2"
    },
    {
      "bufferView": 0,
      "byteOffset": 8,
      "componentType": 5125,
      "count": 29574,
      "type": "SCALAR"
    }
  ],
  "asset": {
    "extras": {
      "author": "simonspata (https://sketchfab.com/simonspata)",
      "license": "CC-BY-4.0 (http://creativecommons.org/licenses/by/4.0/)",
      "source": "https://sketchfab.com/3d-models/patch-of-old-snow-d87fd353cf604345967156ee3679c5b2",
      "title": "Patch of Old Snow"
    },
    "generator": "Sketchfab-12.68.0",
    "version": "2.0"
  },
  "bufferViews": [
    {
      "buffer": 0,
      "byteLength": 118304,
      "name": "floatBufferViews",
      "target": 34963
    },
    {
      "buffer": 0,
      "byteLength": 84344,
      "byteOffset": 118304,
      "byteStride": 8,
      "name": "floatBufferViews",
      "target": 34962
    },
    {
      "buffer": 0,
      "byteLength": 253008,
      "byteOffset": 202648,
      "byteStride": 12,
      "name": "floatBufferViews",
      "target": 34962
    }
  ],
  "buffers": [
    {
      "byteLength": 455656,
      "uri": "scene.bin"
    }
  ],
  "images": [
    {
      "uri": "textures/Neve01_low_baseColor.png"
    }
  ],
  "materials": [
    {
      "doubleSided": true,
      "name": "Neve01_low",
      "pbrMetallicRoughness": {
        "baseColorTexture": {
          "index": 0
        },
        "metallicFactor": 0.0,
        "roughnessFactor": 0.6558700657
      }
    }
  ],
  "meshes": [
    {
      "name": "Object_0",
      "primitives": [
        {
          "attributes": {
            "POSITION": 0,
            "TEXCOORD_0": 1
          },
          "indices": 2,
          "material": 0,
          "mode": 1
        }
      ]
    },
    {
      "name": "Object_1",
      "primitives": [
        {
          "attributes": {
            "NORMAL": 4,
            "POSITION": 3,
            "TEXCOORD_0": 5
          },
          "indices": 6,
          "material": 0,
          "mode": 4
        }
      ]
    }
  ],
  "nodes": [
    {
      "children": [
        1
      ],
      "matrix": [
        1.0,
        0.0,
        0.0,
        0.0,
        0.0,
        2.220446049250313e-16,
        -1.0,
        0.0,
        0.0,
        1.0,
        2.220446049250313e-16,
        0.0,
        0.0,
        0.0,
        0.0,
        1.0
      ],
      "name": "Sketchfab_model"
    },
    {
      "children": [
        2,
        3
      ],
      "name": "Neve01_low.obj.cleaner.materialmerger.gles"
    },
    {
      "mesh": 0,
      "name": "Object_2"
    },
    {
      "mesh": 1,
      "name": "Object_3"
    }
  ],
  "samplers": [
    {
      "magFilter": 9729,
      "minFilter": 9987,
      "wrapS": 10497,
      "wrapT": 10497
    }
  ],
  "scene": 0,
  "scenes": [
    {
      "name": "Sketchfab_Scene",
      "nodes": [
        0
      ]
    }
  ],
  "textures": [
    {
      "sampler": 0,
      "source": 0
    }
  ]
}
