{
  "accessors": [
    {
      "bufferView": 2,
      "componentType": 5126,
      "count": 10641,
      "max": [
        19.868450164794922,
        25.773086547851563,
        0.3217490017414093
      ],
      "min": [
        -19.933034896850586,
        -23.129352569580078,
        0.32173800468444824
      ],
      "type": "VEC3"
    },
    {
      "bufferView": 2,
      "byteOffset": 127692,
      "componentType": 5126,
      "count": 10641,
      "max": [
        0.04889871925115585,
        0.02439996786415577,
        -0.9952738881111145
      ],
      "min": [
        -0.024099158123135567,
        -0.08389779925346375,
        -1.0
      ],
      "type": "VEC3"
    },
    {
      "bufferView": 1,
      "componentType": 5126,
      "count": 10641,
      "max": [
        0.8077229857444763,
        0.70906001329422
      ],
      "min": [
        0.6924639940261841,
        0.5313320159912109
      ],
      "type": "VEC2"
    },
    {
      "bufferView": 0,
      "componentType": 5125,
      "count": 15294,
      "type": "SCALAR"
    },
    {
      "bufferView": 2,
      "byteOffset": 255384,
      "componentType": 5126,
      "count": 10131,
      "max": [
        19.868450164794922,
        25.773086547851563,
        7.9536590576171875
      ],
      "min": [
        -19.933034896850586,
        -23.13414192199707,
        0.32173800468444824
      ],
      "type": "VEC3"
    },
    {
      "bufferView": 2,
      "byteOffset": 376956,
      "componentType": 5126,
      "count": 10131,
      "max": [
        0.9999943375587463,
        0.9999967813491821,
        0.0036215507425367832
      ],
      "min": [
        -0.9999960064888,
        -0.9999988675117493,
        -0.0034611590672284365
      ],
      "type": "VEC3"
    },
    {
      "bufferView": 1,
      "byteOffset": 85128,
      "componentType": 5126,
      "count": 10131,
      "max": [
        0.9980239868164063,
        0.9902330040931702
      ],
      "min": [
        0.022947000339627266,
        0.004358000122010708
      ],
      "type": "VEC2"
    },
    {
      "bufferView": 0,
      "byteOffset": 61176,
      "componentType": 5125,
      "count": 22947,
      "type": "SCALAR"
    },
    {
      "bufferView": 2,
      "byteOffset": 498528,
      "componentType": 5126,
      "count": 65532,
      "max": [
        19.853654861450195,
        25.770851135253906,
        12.438035011291504
      ],
      "min": [
        -16.396896362304688,
        -23.001657485961914,
        0.956840991973877
      ],
      "type": "VEC3"
    },
    {
      "bufferView": 2,
      "byteOffset": 1284912,
      "componentType": 5126,
      "count": 65532,
      "max": [
        0.9999834895133972,
        0.9999997019767761,
        0.9999983906745911
      ],
      "min": [
        -0.999984622001648,
        -0.9999484419822693,
        -0.9999792575836182
      ],
      "type": "VEC3"
    },
    {
      "bufferView": 1,
      "byteOffset": 166176,
      "componentType": 5126,
      "count": 65532,
      "max": [
        0.9998210072517395,
        0.9999849796295166
      ],
      "min": [
        4.999999873689376e-06,
        1.9999999949504854e-06
      ],
      "type": "VEC2"
    },
    {
      "bufferView": 0,
      "byteOffset": 152964,
      "componentType": 5125,
      "count": 331386,
      "type": "SCALAR"
    },
    {
      "bufferView": 2,
      "byteOffset": 2071296,
      "componentType": 5126,
      "count": 65532,
      "max": [
        19.784954071044922,
        21.068885803222656,
        8.973877906799316
      ],
      "min": [
        -15.619455337524414,
        1.728417992591858,
        1.8384590148925781
      ],
      "type": "VEC3"
    },
    {
      "bufferView": 2,
      "byteOffset": 2857680,
      "componentType": 5126,
      "count": 65532,
      "max": [
        0.9999632835388184,
        0.9999064207077026,
        0.9999997019767761
      ],
      "min": [
        -0.9999716281890869,
        -0.9998267889022827,
        -0.9905827045440674
      ],
      "type": "VEC3"
    },
    {
      "bufferView": 1,
      "byteOffset": 690432,
      "componentType": 5126,
      "count": 65532,
      "max": [
        0.9983050227165222,
        0.9993730187416077
      ],
      "min": [
        0.0011390000581741333,
        2.9000000722589903e-05
      ],
      "type": "VEC2"
    },
    {
      "bufferView": 0,
      "byteOffset": 1478508,
      "componentType": 5125,
      "count": 340329,
      "type": "SCALAR"
    },
    {
      "bufferView": 2,
      "byteOffset": 3644064,
      "componentType": 5126,
      "count": 65532,
      "max": [
        19.32516860961914,
        15.897602081298828,
        10.876815795898438
      ],
      "min": [
        -18.325944900512695,
        -6.304349899291992,
        2.354788064956665
      ],
      "type": "VEC3"
    },
    {
      "bufferView": 2,
      "byteOffset": 4430448,
      "componentType": 5126,
      "count": 65532,
      "max": [
        0.9996625781059265,
        0.9998759031295776,
        0.9999995231628418
      ],
      "min": [
        -0.9999731183052063,
        -0.9999502897262573,
        -0.9999566674232483
      ],
      "type": "VEC3"
    },
    {
      "bufferView": 1,
      "byteOffset": 1214688,
      "componentType": 5126,
      "count": 65532,
      "max": [
        0.9999499917030334,
        0.999987006187439
      ],
      "min": [
        0.0005039999959990382,
        3.099999958067201e-05
      ],
      "type": "VEC2"
    },
    {
      "bufferView": 0,
      "byteOffset": 2839824,
      "componentType": 5125,
      "count": 327510,
      "type": "SCALAR"
    },
    {
      "bufferView": 2,
      "byteOffset": 5216832,
      "componentType": 5126,
      "count": 65532,
      "max": [
        18.477855682373047,
        10.398673057556152,
        11.194817543029785
      ],
      "min": [
        -19.913076400756836,
        -14.874788284301758,
        2.6300220489501953
      ],
      "type": "VEC3"
    },
    {
      "bufferView": 2,
      "byteOffset": 6003216,
      "componentType": 5126,
      "count": 65532,
      "max": [
        0.9997477531433105,
        0.9999215006828308,
        0.9999988675117493
      ],
      "min": [
        -0.9997423887252808,
        -0.9995384216308594,
        -0.9986354112625122
      ],
      "type": "VEC3"
    },
    {
      "bufferView": 1,
      "byteOffset": 1738944,
      "componentType": 5126,
      "count": 65532,
      "max": [
        0.9967749714851379,
        0.9999930262565613
      ],
      "min": [
        1.1000000085914508e-05,
        0.00012700000661425292
      ],
      "type": "VEC2"
    },
    {
      "bufferView": 0,
      "byteOffset": 4149864,
      "componentType": 5125,
      "count": 342639,
      "type": "SCALAR"
    },
    {
      "bufferView": 2,
      "byteOffset": 6789600,
      "componentType": 5126,
      "count": 65532,
      "max": [
        8.89358901977539,
        -3.5015978813171387,
        11.896459579467773
      ],
      "min": [
        -18.57596778869629,
        -21.571508407592773,
        4.167016983032227
      ],
      "type": "VEC3"
    },
    {
      "bufferView": 2,
      "byteOffset": 7575984,
      "componentType": 5126,
      "count": 65532,
      "max": [
        0.9999303817749023,
        0.9999304413795471,
        0.9999998211860657
      ],
      "min": [
        -0.9999877214431763,
        -0.9999234676361084,
        -0.9999498724937439
      ],
      "type": "VEC3"
    },
    {
      "bufferView": 1,
      "byteOffset": 2263200,
      "componentType": 5126,
      "count": 65532,
      "max": [
        0.9988710284233093,
        0.9998559951782227
      ],
      "min": [
        0.0014909999445080757,
        0.0011249999515712261
      ],
      "type": "VEC2"
    },
    {
      "bufferView": 0,
      "byteOffset": 5520420,
      "componentType": 5125,
      "count": 342798,
      "type": "SCALAR"
    },
    {
      "bufferView": 2,
      "byteOffset": 8362368,
      "componentType": 5126,
      "count": 65532,
      "max": [
        14.52777099609375,
        5.019522190093994,
        12.328620910644531
      ],
      "min": [
        -18.42679214477539,
        -24.265666961669922,
        3.308532953262329
      ],
      "type": "VEC3"
    },
    {
      "bufferView": 2,
      "byteOffset": 9148752,
      "componentType": 5126,
      "count": 65532,
      "max": [
        0.9999375343322754,
        0.9999967217445374,
        0.9999979138374329
      ],
      "min": [
        -0.9999325275421143,
        -0.9999810457229614,
        -0.9999799132347107
      ],
      "type": "VEC3"
    },
    {
      "bufferView": 1,
      "byteOffset": 2787456,
      "componentType": 5126,
      "count": 65532,
      "max": [
        0.9999039769172668,
        0.9999979734420776
      ],
      "min": [
        8.800000068731606e-05,
        5.900000178371556e-05
      ],
      "type": "VEC2"
    },
    {
      "bufferView": 0,
      "byteOffset": 6891612,
      "componentType": 5125,
      "count": 305154,
      "type": "SCALAR"
    },
    {
      "bufferView": 2,
      "byteOffset": 9935136,
      "componentType": 5126,
      "count": 65532,
      "max": [
        19.358381271362305,
        9.58918571472168,
        10.246050834655762
      ],
      "min": [
        -19.74466323852539,
        -13.418357849121094,
        2.653378963470459
      ],
      "type": "VEC3"
    },
    {
      "bufferView": 2,
      "byteOffset": 10721520,
      "componentType": 5126,
      "count": 65532,
      "max": [
        0.999938428401947,
        0.9999454021453857,
        0.9999996423721313
      ],
      "min": [
        -0.9999762177467346,
        -0.9999943971633911,
        -0.9923112392425537
      ],
      "type": "VEC3"
    },
    {
      "bufferView": 1,
      "byteOffset": 3311712,
      "componentType": 5126,
      "count": 65532,
      "max": [
        0.9989569783210754,
        0.999858021736145
      ],
      "min": [
        0.007056000176817179,
        0.0001140000022132881
      ],
      "type": "VEC2"
    },
    {
      "bufferView": 0,
      "byteOffset": 8112228,
      "componentType": 5125,
      "count": 325914,
      "type": "SCALAR"
    },
    {
      "bufferView": 2,
      "byteOffset": 11507904,
      "componentType": 5126,
      "count": 26983,
      "max": [
        19.426876068115234,
        10.237469673156738,
        11.1123046875
      ],
      "min": [
        -19.29231834411621,
        -10.363521575927734,
        2.426564931869507
      ],
      "type": "VEC3"
    },
    {
      "bufferView": 2,
      "byteOffset": 11831700,
      "componentType": 5126,
      "count": 26983,
      "max": [
        0.9999603629112244,
        0.9999678134918213,
        0.9999966025352478
      ],
      "min": [
        -0.9998942613601685,
        -0.9999943971633911,
        -0.9992398023605347
      ],
      "type": "VEC3"
    },
    {
      "bufferView": 1,
      "byteOffset": 3835968,
      "componentType": 5126,
      "count": 26983,
      "max": [
        0.9998739957809448,
        0.9999759793281555
      ],
      "min": [
        4.999999873689376e-06,
        3.600000127335079e-05
      ],
      "type": "VEC2"
    },
    {
      "bufferView": 0,
      "byteOffset": 9415884,
      "componentType": 5125,
      "count": 101943,
      "type": "SCALAR"
    }
  ],
  "asset": {
    "extras": {
      "author": "Lassi Kaukonen (https://sketchfab.com/thesidekick)",
      "license": "CC-BY-4.0 (http://creativecommons.org/licenses/by/4.0/)",
      "source": "https://sketchfab.com/3d-models/rock-terrain-with-melting-snow-b45847ec8b5943f4b93c96a405887c9e",
      "title": "Rock terrain with melting snow"
    },
    "generator": "Sketchfab-15.4.0",
    "version": "2.0"
  },
  "bufferViews": [
    {
      "buffer": 0,
      "byteLength": 9823656,
      "name": "floatBufferViews",
      "target": 34963
    },
    {
      "buffer": 0,
      "byteLength": 4051832,
      "byteOffset": 9823656,
      "byteStride": 8,
      "name": "floatBufferViews",
      "target": 34962
    },
    {
      "buffer": 0,
      "byteLength": 12155496,
      "byteOffset": 13875488,
      "byteStride": 12,
      "name": "floatBufferViews",
      "target": 34962
    }
  ],
  "buffers": [
    {
      "byteLength": 26030984,
      "uri": "scene.bin"
    }
  ],
  "extensionsUsed": [
    "KHR_materials_unlit"
  ],
  "images": [
    {
      "uri": "textures/Rocks_and_melting_snow_baseColor.jpeg"
    }
  ],
  "materials": [
    {
      "doubleSided": true,
      "extensions": {
        "KHR_materials_unlit": {}
      },
      "name": "Base",
      "pbrMetallicRoughness": {
        "baseColorFactor": [
          0.027566802563422314,
          0.027566802563422314,
          0.027566802563422314,
          1.0
        ],
        "metallicFactor": 0.0
      }
    },
    {
      "doubleSided": true,
      "emissiveFactor": [
        0.41142982530994376,
        0.41142982530994376,
        0.41142982530994376
      ],
      "emissiveTexture": {
        "index": 0
      },
      "extensions": {
        "KHR_materials_unlit": {}
      },
      "name": "Rocks_and_melting_snow",
      "pbrMetallicRoughness": {
        "baseColorTexture": {
          "index": 0
        },
        "metallicFactor": 0.0
      }
    }
  ],
  "meshes": [
    {
      "name": "Object_0",
      "primitives": [
        {
          "attributes": {
            "NORMAL": 1,
            "POSITION": 0,
            "TEXCOORD_0": 2
          },
          "indices": 3,
          "material": 0,
          "mode": 4
        }
      ]
    },
    {
      "name": "Object_1",
      "primitives": [
        {
          "attributes": {
            "NORMAL": 5,
            "POSITION": 4,
            "TEXCOORD_0": 6
          },
          "indices": 7,
          "material": 0,
          "mode": 4
        }
      ]
    },
    {
      "name": "Object_2",
      "primitives": [
        {
          "attributes": {
            "NORMAL": 9,
            "POSITION": 8,
            "TEXCOORD_0": 10
          },
          "indices": 11,
          "material": 1,
          "mode": 4
        }
      ]
    },
    {
      "name": "Object_3",
      "primitives": [
        {
          "attributes": {
            "NORMAL": 13,
            "POSITION": 12,
            "TEXCOORD_0": 14
          },
          "indices": 15,
          "material": 1,
          "mode": 4
        }
      ]
    },
    {
      "name": "Object_4",
      "primitives": [
        {
          "attributes": {
            "NORMAL": 17,
            "POSITION": 16,
            "TEXCOORD_0": 18
          },
          "indices": 19,
          "material": 1,
          "mode": 4
        }
      ]
    },
    {
      "name": "Object_5",
      "primitives": [
        {
          "attributes": {
            "NORMAL": 21,
            "POSITION": 20,
            "TEXCOORD_0": 22
          },
          "indices": 23,
          "material": 1,
          "mode": 4
        }
      ]
    },
    {
      "name": "Object_6",
      "primitives": [
        {
          "attributes": {
            "NORMAL": 25,
            "POSITION": 24,
            "TEXCOORD_0": 26
          },
          "indices": 27,
          "material": 1,
          "mode": 4
        }
      ]
    },
    {
      "name": "Object_7",
      "primitives": [
        {
          "attributes": {
            "NORMAL": 29,
            "POSITION": 28,
            "TEXCOORD_0": 30
          },
          "indices": 31,
          "material": 1,
          "mode": 4
        }
      ]
    },
    {
      "name": "Object_8",
      "primitives": [
        {
          "attributes": {
            "NORMAL": 33,
            "POSITION": 32,
            "TEXCOORD_0": 34
          },
          "indices": 35,
          "material": 1,
          "mode": 4
        }
      ]
    },
    {
      "name": "Object_9",
      "primitives": [
        {
          "attributes": {
            "NORMAL": 37,
            "POSITION": 36,
            "TEXCOORD_0": 38
          },
          "indices": 39,
          "material": 1,
          "mode": 4
        }
      ]
    }
  ],
  "nodes": [
    {
      "children": [
        1
      ],
      "matrix": [
        1.0,
        0.0,
        0.0,
        0.0,
        0.0,
        2.220446049250313e-16,
        -1.0,
        0.0,
        0.0,
        1.0,
        2.220446049250313e-16,
        0.0,
        0.0,
        0.0,
        0.0,
        1.0
      ],
      "name": "Sketchfab_model"
    },
    {
      "children": [
        2,
        3,
        4,
        5,
        6,
        7,
        8,
        9,
        10,
        11
      ],
      "name": "Rocks_and_melting_snow_SF.obj.cleaner.materialmerger.gles"
    },
    {
      "mesh": 0,
      "name": "Object_2"
    },
    {
      "mesh": 1,
      "name": "Object_3"
    },
    {
      "mesh": 2,
      "name": "Object_4"
    },
    {
      "mesh": 3,
      "name": "Object_5"
    },
    {
      "mesh": 4,
      "name": "Object_6"
    },
    {
      "mesh": 5,
      "name": "Object_7"
    },
    {
      "mesh": 6,
      "name": "Object_8"
    },
    {
      "mesh": 7,
      "name": "Object_9"
    },
    {
      "mesh": 8,
      "name": "Object_10"
    },
    {
      "mesh": 9,
      "name": "Object_11"
    }
  ],
  "samplers": [
    {
      "magFilter": 9729,
      "minFilter": 9987,
      "wrapS": 10497,
      "wrapT": 10497
    }
  ],
  "scene": 0,
  "scenes": [
    {
      "name": "Sketchfab_Scene",
      "nodes": [
        0
      ]
    }
  ],
  "textures": [
    {
      "sampler": 0,
      "source": 0
    }
  ]
}
